HIERARCHY
ROOT Hips
{
	OFFSET -22.547621 92.150253 317.270813
	CHANNELS 6 Xposition Yposition Zposition Zrotation Yrotation Xrotation 
	JOINT LeftUpLeg
	{
		OFFSET 0.103459 1.857823 10.548503
		CHANNELS 3 Zrotation Yrotation Xrotation
		JOINT LeftLeg
		{
			OFFSET 43.499996 -0.000023 0.000000
			CHANNELS 3 Zrotation Yrotation Xrotation
			JOINT LeftFoot
			{
				OFFSET 42.372200 0.000004 0.000000
				CHANNELS 3 Zrotation Yrotation Xrotation
				JOINT LeftToe
				{
					OFFSET 17.300018 0.000006 0.000005
					CHANNELS 3 Zrotation Yrotation Xrotation
					End Site
					{
						OFFSET 0.000000 0.000000 0.000000
					}
				}
			}
		}
	}
	JOINT RightUpLeg
	{
		OFFSET 0.103455 1.857822 -10.548502
		CHANNELS 3 Zrotation Yrotation Xrotation
		JOINT RightLeg
		{
			OFFSET 43.500046 0.000008 0.000013
			CHANNELS 3 Zrotation Yrotation Xrotation
			JOINT RightFoot
			{
				OFFSET 42.372261 -0.000023 0.000013
				CHANNELS 3 Zrotation Yrotation Xrotation
				JOINT RightToe
				{
					OFFSET 17.299988 -0.000007 0.000011
					CHANNELS 3 Zrotation Yrotation Xrotation
					End Site
					{
						OFFSET 0.000000 0.000000 0.000000
					}
				}
			}
		}
	}
	JOINT Spine
	{
		OFFSET 6.901964 -2.603734 -0.000001
		CHANNELS 3 Zrotation Yrotation Xrotation
		JOINT Spine1
		{
			OFFSET 12.588106 0.000013 -0.000000
			CHANNELS 3 Zrotation Yrotation Xrotation
			JOINT Spine2
			{
				OFFSET 12.343193 -0.000017 0.000001
				CHANNELS 3 Zrotation Yrotation Xrotation
				JOINT Neck
				{
					OFFSET 25.832893 -0.000002 -0.000002
					CHANNELS 3 Zrotation Yrotation Xrotation
					JOINT Head
					{
						OFFSET 11.766612 0.000007 0.000002
						CHANNELS 3 Zrotation Yrotation Xrotation
						End Site
						{
							OFFSET 0.000000 0.000000 0.000000
						}
					}
				}
				JOINT LeftShoulder
				{
					OFFSET 19.745903 -1.480356 6.000103
					CHANNELS 3 Zrotation Yrotation Xrotation
					JOINT LeftArm
					{
						OFFSET 11.284128 0.000005 -0.000009
						CHANNELS 3 Zrotation Yrotation Xrotation
						JOINT LeftForeArm
						{
							OFFSET 33.000053 -0.000022 0.000028
							CHANNELS 3 Zrotation Yrotation Xrotation
							JOINT LeftHand
							{
								OFFSET 25.200006 0.000028 0.000005
								CHANNELS 3 Zrotation Yrotation Xrotation
								End Site
								{
									OFFSET 0.000000 0.000000 0.000000
								}
							}
						}
					}
				}
				JOINT RightShoulder
				{
					OFFSET 19.746094 -1.480350 -6.000075
					CHANNELS 3 Zrotation Yrotation Xrotation
					JOINT RightArm
					{
						OFFSET 11.284135 -0.000011 -0.000017
						CHANNELS 3 Zrotation Yrotation Xrotation
						JOINT RightForeArm
						{
							OFFSET 33.000092 0.000037 0.000003
							CHANNELS 3 Zrotation Yrotation Xrotation
							JOINT RightHand
							{
								OFFSET 25.199785 0.000114 0.000427
								CHANNELS 3 Zrotation Yrotation Xrotation
								End Site
								{
									OFFSET 0.000000 0.000000 0.000000
								}
							}
						}
					}
				}
			}
		}
	}
}
MOTION
Frames: 15
Frame Time: 0.033333
-45.731819 121.023804 253.448105 97.995907 26.171292 -97.387829 147.710368 -11.499893 162.781481 -27.777599 -4.250947 -7.430003 74.298572 3.647492 -5.719645 21.454550 0.003102 -0.000001 112.915902 -2.550596 -168.702667 -101.160894 -2.737391 1.009436 106.167996 -0.501079 5.215794 21.454560 -0.003114 -0.000020 11.847091 -0.242379 -0.921229 13.684463 -0.373978 -1.864648 13.366530 -0.385106 -1.862345 10.840733 21.492234 11.317972 -50.291052 -7.940240 20.291819 152.396847 -88.241304 25.990169 -19.899502 51.089453 -11.841550 -105.283008 0.514155 2.947532 2.037311 32.832323 25.051710 137.446957 88.437774 -40.981183 -71.585444 -13.036113 -28.737259 -45.305058 22.919789 -2.158706 -43.216209 60.752907 -57.755567 
-46.341091 121.077400 253.321793 97.767096 25.643909 -98.668517 148.720566 -11.471605 161.904320 -27.547708 -4.250575 -7.475221 74.239389 3.638899 -5.845885 21.454553 0.003096 -0.000001 111.901605 -2.610699 -168.607386 -101.075195 -2.685887 0.281639 106.451299 -0.027533 5.440253 21.454558 -0.003111 -0.000018 11.856452 -0.069449 -0.790945 13.700369 -0.044694 -1.584497 13.382412 -0.054129 -1.584187 11.543770 19.881325 11.343549 -50.652184 -7.874726 20.060163 165.763910 -88.451995 12.583424 -20.902623 51.075024 -16.521166 -110.455401 1.859051 3.079390 -3.522049 32.674368 15.824720 108.103760 88.107521 -70.378440 -72.240097 -13.012450 -28.561799 -43.309195 22.595572 -2.076423 -41.807240 60.656260 -56.280643 
-46.925861 120.964500 253.169205 97.197902 25.032304 -99.945373 149.583369 -11.094180 160.997490 -27.692536 -4.245614 -7.591622 74.395349 3.698332 -5.941856 21.454555 0.003085 0.000003 111.075699 -2.494193 -168.841033 -100.536689 -2.677812 -0.217199 106.852893 0.290308 5.777436 21.454563 -0.003124 -0.000017 11.867413 0.050220 -0.709346 13.720882 0.184289 -1.407673 13.402879 0.175899 -1.408751 12.084053 18.632322 11.329790 -51.019365 -8.154042 20.115979 -178.233718 -88.884605 -3.463078 -22.165190 51.151997 -21.700358 -115.410512 2.927126 3.216614 -8.271990 29.472529 8.640701 98.008645 87.627762 -80.512713 -72.992750 -12.913267 -28.661277 -41.243879 22.350230 -2.000224 -40.601421 60.651561 -54.912740 
-47.473820 120.899300 252.941299 96.819612 24.365496 -101.080195 150.556494 -10.679902 160.347720 -27.642600 -4.128432 -7.869822 74.451152 3.852705 -6.087931 21.454553 0.003088 -0.000000 110.656346 -2.473001 -169.038904 -99.286403 -2.657866 -0.760885 107.069793 0.645735 6.289270 21.454557 -0.003106 -0.000017 11.903136 0.197977 -0.623811 13.791049 0.468915 -1.219512 13.473005 0.461676 -1.222313 12.382362 17.609631 11.313960 -51.090635 -8.680065 20.371347 -145.545307 -89.186267 -36.201536 -23.453654 51.141526 -27.224306 -119.779894 3.653727 3.347596 -11.445549 24.579534 3.949798 93.707969 87.247785 -84.843490 -73.843620 -12.880742 -28.833288 -39.219458 22.161546 -1.931868 -39.554445 60.633447 -53.687718 
-47.969090 120.826103 252.664597 96.480302 23.786301 -102.119873 151.477722 -10.340001 159.828243 -27.565117 -4.206514 -8.165393 74.531318 4.059340 -6.115231 21.454553 0.003100 -0.000000 110.323572 -2.506803 -169.464985 -97.660517 -2.577345 -1.458052 106.984101 1.118583 6.704743 21.454563 -0.003117 -0.000016 11.905208 0.363281 -0.552653 13.794254 0.789832 -1.057995 13.476178 0.783558 -1.062730 12.746104 16.570823 11.288171 -51.088989 -9.244505 20.626925 -115.623546 -89.037950 -66.171214 -24.548091 50.664663 -32.613539 -122.998497 4.055675 3.449561 -13.347611 18.447590 -1.393638 91.620151 86.622290 -86.985082 -74.353159 -12.977744 -28.874512 -37.369638 21.894113 -1.865776 -38.877648 60.428056 -52.839283 
-48.420990 120.773201 252.368896 96.213822 23.348997 -103.062316 152.282114 -10.074409 159.194429 -27.447308 -4.253883 -8.337000 74.607693 4.195130 -6.079163 21.454551 0.003092 0.000004 110.047489 -2.705907 -170.090275 -95.838066 -2.481100 -1.957898 106.682596 1.469044 6.779002 21.454560 -0.003120 -0.000017 11.887876 0.548338 -0.486003 13.759039 1.150507 -0.903286 13.440913 1.145178 -0.910207 12.872487 15.613655 11.211749 -50.863001 -9.855594 20.865895 -100.512838 -88.787432 -81.319365 -25.177921 50.034903 -37.286488 -125.002707 4.198246 3.518599 -13.138811 10.913359 -4.932517 90.774403 86.052508 -87.880376 -74.783755 -13.124076 -28.641475 -35.808158 21.509061 -1.801642 -38.546524 59.999899 -52.377886 
-48.823051 120.717201 252.066803 95.940703 23.002112 -103.901493 152.930791 -9.750501 158.431019 -27.377461 -4.104904 -8.381978 74.684519 4.222320 -6.093488 21.454555 0.003092 -0.000001 109.899602 -2.941303 -170.972653 -93.998621 -2.368145 -2.289571 106.190700 1.717962 6.754687 21.454555 -0.003104 -0.000015 11.882997 0.730959 -0.431216 13.749238 1.507926 -0.772444 13.431050 1.503371 -0.781526 12.526224 14.789016 11.125230 -50.456882 -10.363061 21.053886 -86.555306 -88.295324 -95.336313 -25.662339 49.372098 -41.074886 -125.780010 4.029670 3.560180 -12.126169 2.455287 -4.454334 90.783575 85.907100 -87.884461 -75.448667 -13.189057 -28.248631 -34.637071 21.163034 -1.751121 -38.514662 59.276753 -52.231655 
-49.171768 120.626701 251.756897 95.597411 22.689600 -104.643498 153.448587 -9.330799 157.752426 -27.406564 -3.913496 -8.434935 74.803528 4.246119 -6.141850 21.454548 0.003090 -0.000002 109.936334 -3.104086 -172.026073 -92.315935 -2.287855 -2.342839 105.703898 1.784980 6.874903 21.454562 -0.003122 -0.000019 11.878263 0.902995 -0.399120 13.739877 1.846930 -0.688104 13.421638 1.842893 -0.699235 12.246805 13.959095 10.993109 -50.288828 -10.786097 21.157401 -79.639323 -87.800019 -102.306221 -25.562818 48.714180 -44.650839 -125.449702 3.831664 3.560871 -12.007151 -3.861004 1.915087 89.478743 85.718471 -89.202844 -75.863423 -13.327232 -27.820754 -33.870283 21.026826 -1.724463 -38.734228 58.386909 -52.459340 
-49.463039 120.552002 251.422195 95.336498 22.384598 -105.203676 153.982435 -8.953401 157.337547 -27.374273 -3.839766 -8.537415 74.896262 4.312962 -6.168759 21.454553 0.003079 0.000001 110.097076 -3.195298 -172.916867 -90.928061 -2.244047 -2.103528 104.973915 1.661663 6.639468 21.454560 -0.003121 -0.000018 11.888113 1.081913 -0.382507 13.759799 2.201550 -0.633536 13.441474 2.197814 -0.646814 12.470531 13.215389 10.886318 -50.621363 -11.099497 21.248237 -74.812961 -87.558961 -107.159671 -24.554320 47.871696 -46.480967 -124.302599 3.231196 3.557119 -13.126141 -9.276458 13.863367 89.030990 85.669799 -89.653534 -76.205548 -13.420765 -28.051459 -33.425546 21.178362 -1.724045 -38.432737 57.900388 -52.273767 
-49.712219 120.514503 251.062698 95.132692 22.172500 -105.677677 154.502882 -8.634193 157.134267 -27.200214 -3.874367 -8.683488 74.933117 4.411745 -6.191514 21.454553 0.003099 0.000000 110.190882 -3.236211 -173.690741 -89.837471 -2.240036 -1.852450 103.820405 1.548695 6.265122 21.454555 -0.003109 -0.000015 11.896448 1.255313 -0.367086 13.776976 2.545335 -0.582002 13.458539 2.541902 -0.597362 12.981250 12.575059 10.835332 -51.064864 -11.363029 21.366770 -70.741601 -87.518089 -111.237192 -23.354022 47.329270 -47.028243 -122.384504 2.468711 3.533537 -14.663250 -13.406626 26.850669 89.607820 85.854706 -89.061637 -76.390591 -13.637634 -27.549863 -33.882905 21.326359 -1.744054 -38.942371 56.648247 -53.285898 
-49.917461 120.482300 250.674606 94.937806 22.021904 -106.058488 154.991267 -8.331883 157.031172 -26.985765 -3.961417 -8.814397 74.970765 4.501916 -6.212365 21.454548 0.003088 -0.000006 110.323483 -3.171599 -174.400903 -88.951821 -2.247473 -1.658438 102.718095 1.475198 6.096780 21.454557 -0.003099 -0.000018 11.922628 1.423234 -0.383296 13.829299 2.881957 -0.593634 13.510780 2.878468 -0.611028 13.486141 11.944838 10.876170 -51.693368 -11.631740 21.636043 -71.398372 -87.417904 -110.589833 -23.281463 47.628036 -49.157493 -120.090298 2.023019 3.471937 -13.087269 -12.601566 37.061621 91.699203 86.048636 -86.958670 -76.444010 -13.813725 -26.908543 -34.756002 21.567857 -1.780080 -39.747091 55.135070 -54.690793 
-50.091839 120.437302 250.275299 94.678320 21.986299 -106.405092 155.336069 -8.005097 156.926410 -26.811744 -4.033861 -8.905397 75.037654 4.562659 -6.241703 21.454551 0.003082 0.000002 110.407556 -3.071697 -175.027231 -88.205227 -2.298267 -1.452170 101.572604 1.371800 5.572190 21.454557 -0.003100 -0.000018 11.970392 1.561656 -0.411985 13.924495 3.161415 -0.632927 13.605894 3.157675 -0.652015 13.257160 11.590649 10.901638 -51.939467 -11.942188 21.943272 -72.951522 -86.938548 -109.083435 -24.426725 48.763538 -51.557488 -117.424503 1.566276 3.394165 -11.171940 -11.615983 43.820031 96.132133 86.684595 -82.476016 -76.823461 -13.867081 -26.200023 -35.936716 21.913656 -1.831031 -40.629739 53.583025 -56.171103 
-50.213150 120.346497 249.857101 94.336783 22.038189 -106.721009 155.497125 -7.671899 156.784752 -26.839923 -4.063718 -8.927681 75.199160 4.567283 -6.309028 21.454548 0.003084 -0.000002 110.444610 -2.832510 -175.695674 -87.555136 -2.307462 -1.645924 100.001291 1.609694 5.908477 21.454558 -0.003102 -0.000016 12.013031 1.674703 -0.473078 14.008365 3.394234 -0.739870 13.689671 3.389847 -0.760367 12.816907 11.109228 10.919811 -52.070196 -12.004947 22.042103 -74.521025 -86.727864 -107.533590 -24.654305 50.101073 -52.730085 -114.948805 1.173881 3.318021 -9.455131 -11.862333 46.915883 99.448565 87.338831 -79.102388 -77.234406 -14.049719 -25.344467 -37.303993 22.387084 -1.896213 -41.654291 52.090793 -57.701138 
-50.288631 120.218002 249.420502 93.949498 22.138301 -107.082401 155.529473 -7.368610 156.572388 -27.065272 -4.025061 -8.916066 75.441208 4.526673 -6.462068 21.454555 0.003101 -0.000001 110.570879 -2.622495 -176.323137 -86.967918 -2.373935 -1.970913 98.967399 1.938346 6.501859 21.454560 -0.003112 -0.000016 12.051297 1.744024 -0.563171 14.082329 3.543510 -0.909908 13.763624 3.538090 -0.931308 12.668026 10.763469 11.089160 -52.419441 -11.943669 22.238078 -74.454724 -86.799062 -107.592992 -23.404050 51.120032 -52.344671 -112.738399 0.996126 3.236829 -8.552902 -12.602174 46.763768 102.497124 87.721786 -76.019896 -77.407442 -14.417209 -24.228320 -38.926218 22.939363 -1.974973 -42.891344 50.403220 -59.463197 
-50.350128 120.118301 248.965195 93.603214 22.285094 -107.543091 155.570331 -7.130096 156.522883 -27.214465 -4.042474 -9.046833 75.637870 4.571611 -6.666936 21.454550 0.003086 -0.000001 110.770048 -2.654096 -176.835278 -86.451726 -2.439430 -1.925489 98.393724 1.894689 5.970787 21.454557 -0.003089 -0.000016 12.118889 1.777736 -0.636553 14.215372 3.620084 -1.049942 13.896637 3.613813 -1.071807 12.453760 11.059290 11.367119 -52.949945 -12.293049 22.962765 -75.249458 -86.662813 -106.810908 -21.574276 51.901610 -51.042516 -111.199216 0.992398 3.171323 -8.072116 -12.288955 43.968219 112.142485 88.322870 -66.319511 -77.743652 -14.726371 -23.283155 -40.901198 23.571521 -2.071186 -44.049249 48.727157 -61.224620 
